<svg xmlns="http://www.w3.org/2000/svg" viewBox="0 0 190.7 190.7" fill="#5d7373" xmlns:v="https://vecta.io/nano"><path d="M77 132c-1.4 0-2.8-.5-3.9-1.6l-25.7-25.6c-2.1-2.1-2.1-5.6 0-7.8 2.1-2.1 5.6-2.1 7.8 0L77 118.7l58.4-58.4c2.1-2.1 5.6-2.1 7.8 0 2.1 2.1 2.1 5.6 0 7.8l-62.3 62.3c-1.1 1.1-2.5 1.6-3.9 1.6zm18.3 58.7C42.8 190.7 0 147.9 0 95.3 0 42.8 42.8 0 95.3 0s95.3 42.8 95.3 95.3c.1 52.6-42.7 95.4-95.3 95.4zm0-179.7C48.8 11 11 48.8 11 95.3s37.8 84.3 84.3 84.3 84.3-37.8 84.3-84.3c.1-46.5-37.7-84.3-84.3-84.3z"/></svg>