<svg xmlns="http://www.w3.org/2000/svg" viewBox="0 0 146.8 146.8" fill="#5d7373" xmlns:v="https://vecta.io/nano"><path d="M73.4 0C32.9 0 0 32.9 0 73.4s32.9 73.4 73.4 73.4 73.4-32.9 73.4-73.4S113.9 0 73.4 0zm62.9 73.4c0 34.7-28.2 62.9-62.9 62.9s-62.9-28.2-62.9-62.9 28.2-62.9 62.9-62.9 62.9 28.2 62.9 62.9zm-31.4-26.3c0-1.4-.5-2.7-1.5-3.7s-2.3-1.5-3.7-1.5-2.7.5-3.7 1.5L73.4 66 50.8 43.4c-1-1-2.3-1.5-3.7-1.5s-2.7.5-3.7 1.5-1.5 2.3-1.5 3.7.5 2.7 1.5 3.7L66 73.4 43.4 96c-1 1-1.5 2.3-1.5 3.7s.5 2.7 1.5 3.7 2.3 1.5 3.7 1.5 2.7-.5 3.7-1.5l22.6-22.6L96 103.4c1 1 2.3 1.5 3.7 1.5s2.7-.5 3.7-1.5 1.5-2.3 1.5-3.7-.5-2.7-1.5-3.7L80.8 73.4l22.6-22.6c1-1 1.5-2.3 1.5-3.7z"/></svg>