<svg xmlns="http://www.w3.org/2000/svg" viewBox="0 0 154.5 131.3" fill="#5d7373" xmlns:v="https://vecta.io/nano"><path d="M77.2 65.4c6.9 0 12.5-5.6 12.5-12.5s-5.6-12.5-12.5-12.5S64.7 46 64.7 52.9s5.6 12.5 12.5 12.5zm38.3 0c6.9 0 12.5-5.6 12.5-12.5s-5.6-12.5-12.5-12.5S103 46 103 52.9s5.6 12.5 12.5 12.5zm-76.6 0c6.9 0 12.5-5.6 12.5-12.5s-5.6-12.5-12.5-12.5S26.4 46 26.4 52.9 32 65.4 38.9 65.4zM131.1 0H23.3C10.5 0 0 10.4 0 23.3v59.1A23.23 23.23 0 0 0 17.8 105v16.8c0 3.9 2.3 7.3 5.9 8.8 1.2.5 2.4.7 3.7.7 2.5 0 4.9-1 6.7-2.8l22.8-22.8h74.3c12.8 0 23.3-10.4 23.3-23.3V23.3C154.4 10.5 144 0 131.1 0zM23.2 94.7c-6.8 0-12.3-5.5-12.3-12.3V23.3c0-6.8 5.5-12.3 12.3-12.3h107.9c6.8 0 12.3 5.5 12.3 12.3v59.1c0 6.8-5.5 12.3-12.3 12.3H52.2l-23.5 23.5V94.7h-5.5z"/></svg>