<svg xmlns="http://www.w3.org/2000/svg" viewBox="0 0 142.7 123.4" fill="#5d7373" xmlns:v="https://vecta.io/nano"><path d="M59.5 70.9C64.1 67 67 61.1 67 54.6a21.47 21.47 0 0 0-21.5-21.5C33.7 33.1 24 42.7 24 54.6c0 6.5 2.9 12.4 7.6 16.4C16.8 76.6 6.1 91 6 107.7v2.3l1.8 1.3c11 7.9 24 12.1 37.7 12.1 13.6 0 26.6-4.2 37.7-12.1L85 110v-2.3c0-16.8-10.7-31.1-25.5-36.8zm-14-29.1c7 0 12.7 5.7 12.7 12.7s-5.7 12.7-12.7 12.7-12.7-5.7-12.7-12.7 5.7-12.7 12.7-12.7zm0 72.8c-11 0-21.5-3.1-30.6-9.1 1.2-15.8 14.5-28.3 30.6-28.3s29.4 12.5 30.6 28.3c-9 5.9-19.6 9.1-30.6 9.1zm97.2-12.5c-.1-20.4-13.4-37.7-31.7-44 6.1-4.6 10-11.8 10-20 0-13.8-11.2-25-25-25s-25 11.2-25 25c0 8.2 3.9 15.4 10 20-.9.3-1.7.6-2.5.9-2.2.9-3.3 3.5-2.4 5.7s3.5 3.3 5.7 2.4c4.5-1.8 9.3-2.8 14.2-2.8 20.1 0 36.6 15.7 37.9 35.5-11.2 7.5-24.3 11.4-37.9 11.4-2.4 0-4.4 2-4.4 4.4s2 4.4 4.4 4.4c16.2 0 31.7-5 44.9-14.4l1.8-1.3v-2.2zM96 21.8c9 0 16.3 7.3 16.3 16.3S104.9 54.3 96 54.3 79.7 47 79.7 38.1 87 21.8 96 21.8zm-83 8.7c0 2.4 2 4.4 4.4 4.4s4.4-2 4.4-4.4v-8.7h8.7c2.4 0 4.4-2 4.4-4.4s-2-4.4-4.4-4.4h-8.7V4.4c0-2.4-2-4.4-4.4-4.4S13 2 13 4.4V13H4.4C2 13 0 15 0 17.4s2 4.4 4.4 4.4H13v8.7z"/></svg>