<svg xmlns="http://www.w3.org/2000/svg" xmlns:xlink="http://www.w3.org/1999/xlink" viewBox="0 0 415.5 478" xmlns:v="https://vecta.io/nano"><g fill="#5d7373"><path d="M208.8 123c-33.9 0-61.5-27.6-61.5-61.5S174.9 0 208.8 0s61.5 27.6 61.5 61.5-27.6 61.5-61.5 61.5zm0-103c-22.9 0-41.5 18.6-41.5 41.5s18.6 41.5 41.5 41.5 41.5-18.6 41.5-41.5S231.7 20 208.8 20zm0 353.3c-26.2 0-47.5-21.3-47.5-47.5v-15c0-12.1-3.6-23.8-10.4-33.9-9.1-13.4-13.9-29-13.9-45.1V204l-89.8-88c-6.2-6-9.6-14.1-9.6-22.8 0-8.6 3.3-16.7 9.4-22.8 11.8-11.8 30.4-12.7 43.2-2l72 60c27 22.5 66.2 22.5 93.1 0l72-60c12.8-10.7 31.4-9.9 43.2 2 6.1 6.1 9.4 14.2 9.4 22.8s-3.5 16.7-9.6 22.8l-89.8 88v27.8c0 16.1-4.8 31.7-13.9 45.1-6.8 10-10.4 21.7-10.4 33.9v15c0 26.2-21.2 47.5-47.4 47.5zM69.7 81c-3.1 0-6.2 1.2-8.5 3.6-2.3 2.3-3.6 5.4-3.5 8.6 0 3.3 1.3 6.3 3.6 8.6l92.8 91c1.9 1.9 3 4.5 3 7.1v32c0 12.1 3.6 23.8 10.4 33.9 9.1 13.4 13.9 29 13.9 45.1v15c0 15.1 12.3 27.5 27.5 27.5s27.5-12.3 27.5-27.5v-15c0-16.1 4.8-31.7 13.9-45.1 6.8-10 10.4-21.7 10.4-33.9v-32c0-2.7 1.1-5.3 3-7.1l92.8-91c2.3-2.3 3.6-5.3 3.6-8.6s-1.2-6.3-3.5-8.6c-4.4-4.4-11.4-4.8-16.3-.7l-72 60c-34.4 28.7-84.3 28.7-118.7 0l-72-60c-2.5-2-5.2-2.9-7.9-2.9zm293.7 27.9h0 0z"/><use xlink:href="#B"/><path d="M207.8 478c-54.5 0-105.9-12.1-144.8-34.1-40.6-23-63-54.2-63-87.9 0-31.5 19.9-61.2 56.1-83.8 4.7-2.9 10.9-1.5 13.8 3.2s1.5 10.9-3.2 13.8C36.6 308 20 331.7 20 356.1c0 26.1 18.8 51.2 52.9 70.5 35.9 20.3 83.8 31.5 134.9 31.5s99-11.2 134.9-31.5c34.1-19.3 52.9-44.3 52.9-70.5 0-24.3-16.6-48.1-46.7-66.8-4.7-2.9-6.1-9.1-3.2-13.8s9.1-6.1 13.8-3.2c36.2 22.5 56.1 52.3 56.1 83.8 0 33.7-22.4 64.9-63 87.9-38.9 21.9-90.3 34-144.8 34z"/><use xlink:href="#C"/><path d="M207.8 420.8c-77 0-137.3-32.8-137.3-74.7 0-13.2 6-26 17.4-37 9.7-9.5 23-17.6 39.6-23.9 5.2-2 10.9.6 12.9 5.7s-.6 10.9-5.7 12.9c-13.8 5.3-25.2 12.1-32.8 19.6-7.5 7.3-11.4 15-11.4 22.7 0 13.1 11.6 26.5 31.8 36.8 22.7 11.5 53 17.9 85.5 17.9s62.8-6.3 85.5-17.9c20.2-10.3 31.8-23.7 31.8-36.8 0-7.7-3.8-15.4-11.3-22.7-7.7-7.5-19-14.3-32.9-19.6a9.93 9.93 0 0 1-5.7-12.9c2-5.1 7.8-7.7 12.9-5.7 16.5 6.4 29.9 14.5 39.6 24 11.4 11 17.4 23.8 17.4 37 0 41.8-60.4 74.6-137.3 74.6z"/><use xlink:href="#B"/><use xlink:href="#C"/></g><defs ><path id="B" d="M94.8 326.3a10.15 10.15 0 0 1-7.2-3c-3.9-3.9-3.8-10.3.2-14.1 9.7-9.5 23.1-17.6 39.6-24 5.2-2 10.9.6 12.9 5.7s-.6 10.9-5.7 12.9c-13.8 5.3-25.2 12.1-32.8 19.6-1.9 1.9-4.4 2.9-7 2.9z"/><path id="C" d="M320.7 326.3c-2.5 0-5-.9-7-2.8-7.7-7.5-19-14.3-32.8-19.6a9.93 9.93 0 0 1-5.7-12.9c2-5.1 7.8-7.7 12.9-5.7 16.5 6.4 29.9 14.5 39.6 24 4 3.9 4 10.2.2 14.1-2 1.8-4.6 2.9-7.2 2.9z"/></defs></svg>