<svg xmlns="http://www.w3.org/2000/svg" viewBox="0 0 122.6 149.6" fill="#5d7373" xmlns:v="https://vecta.io/nano"><path d="M54.4 109.5H30.2c-5.3 0-9.7-4.4-9.7-9.7V81.2H9.8c-.1 0-.1 0-.2-.1s0-.2 0-.2l10.1-21.8c1.1-2.3 1.7-4.8 1.9-7.3.3-3.8 2-10.5 6.1-18C39.9 11.3 61.8 9 73.8 9.6c2.6.1 4.9-1.9 5-4.5S76.9.2 74.3.1C60-.6 34 2.2 19.3 29.2c-6.1 11.1-7.1 19.6-7.2 21.9-.1 1.4-.5 2.7-1 4L.9 76.9c-1.4 3-1.2 6.5.6 9.4 1.8 2.8 4.9 4.5 8.2 4.5H11v9c0 10.6 8.6 19.2 19.2 19.2h10v25.8c0 2.6 2.1 4.8 4.8 4.8s4.8-2.1 4.8-4.8V119h4.7c2.6 0 4.8-2.1 4.8-4.8a4.94 4.94 0 0 0-4.9-4.7zm61.3-45.7c-2.6-.6-5.1 1-5.7 3.6-2.6 11.5-6.5 22.5-9.4 29.7-2.9 7.3-4.3 15-4.3 22.8v24.9c0 2.6 2.1 4.8 4.8 4.8s4.8-2.1 4.8-4.8v-24.9c0-6.7 1.2-13.2 3.7-19.3 3-7.5 7.1-19 9.8-31.1.4-2.6-1.2-5.1-3.7-5.7zM93.4 53.4h-4.3a19.5 19.5 0 0 0-2.7-6.5l3-3c.8-.8.8-2.1 0-2.8l-3.3-3.3c-.8-.8-2.1-.8-2.8 0l-3 3c-2-1.2-4.1-2.2-6.5-2.7v-4.3c0-1.1-.9-2-2-2h-4.7c-1.1 0-2 .9-2 2v4.3a19.5 19.5 0 0 0-6.5 2.7l-3-3c-.8-.8-2.1-.8-2.8 0l-3.3 3.3c-.8.8-.8 2.1 0 2.8l3 3c-1.2 2-2.2 4.1-2.7 6.5h-4.3c-1.1 0-2 .9-2 2v4.7c0 1.1.9 2 2 2h4.3a19.5 19.5 0 0 0 2.7 6.5l-3 3c-.8.8-.8 2.1 0 2.8l3.3 3.3c.8.8 2.1.8 2.8 0l3-3c1.9 1.2 4.1 2.2 6.5 2.7v4.3c0 1.1.9 2 2 2h4.7c1.1 0 2-.9 2-2v-4.3a19.5 19.5 0 0 0 6.5-2.7l3 3c.8.8 2.1.8 2.8 0l3.3-3.3c.8-.8.8-2.1 0-2.8l-3-3c1.2-1.9 2.2-4.1 2.7-6.5h4.3c1.1 0 2-.9 2-2v-4.7c.1-1.1-.8-2-2-2zm-23.9 15c-5.9 0-10.7-4.8-10.7-10.7S63.6 47 69.5 47s10.7 4.8 10.7 10.7-4.8 10.7-10.7 10.7zm52.2-41l-3-1.2c.3-1.7.3-3.5 0-5.3l3-1.3c.8-.3 1.1-1.2.8-2l-1.4-3.3c-.3-.8-1.2-1.1-2-.8l-3 1.3c-1-1.5-2.3-2.7-3.8-3.7l1.2-3c.3-.8-.1-1.7-.8-2l-3.3-1.3c-.8-.3-1.7.1-2 .8l-1.2 3c-1.7-.3-3.5-.3-5.3 0l-1.3-3c-.3-.8-1.2-1.1-2-.8l-3.3 1.4c-.8.3-1.1 1.2-.8 2l1.3 3c-1.5 1-2.7 2.3-3.7 3.8l-3-1.2c-.8-.3-1.7.1-2 .8l-1.3 3.3c-.3.8.1 1.7.8 2l3 1.2c-.3 1.7-.3 3.5 0 5.3l-3 1.3c-.8.3-1.1 1.2-.8 2l1.4 3.3c.3.8 1.2 1.1 2 .8l3-1.3c1 1.5 2.3 2.7 3.8 3.7l-1.2 3c-.3.8.1 1.7.8 2l3.3 1.3c.8.3 1.7-.1 2-.8l1.2-3c1.7.3 3.5.3 5.3 0l1.3 3c.3.8 1.2 1.1 2 .8l3.3-1.4c.8-.3 1.1-1.2.8-2l-1.3-3c1.5-1 2.7-2.3 3.7-3.8l3 1.2c.8.3 1.7-.1 2-.8l1.3-3.3c.3-.7-.1-1.6-.8-2zm-15 3.7c-4.1 1.7-8.9-.2-10.6-4.3s.2-8.9 4.3-10.6 8.9.2 10.6 4.3c1.8 4.1-.1 8.9-4.3 10.6z"/></svg>