<svg xmlns="http://www.w3.org/2000/svg" viewBox="0 0 50.3 123.8" fill="#5d7373" stroke="#5d7373" stroke-width="2" stroke-miterlimit="10" xmlns:v="https://vecta.io/nano"><path d="M47.4 2.9C46.1 1.6 44.6 1 42.6 1c-2.5 0-4.7 1-6.5 3s-2.7 4.4-2.7 7.2c0 2.1.6 3.8 1.9 5.2 1.3 1.3 2.8 2 4.7 2 2.4 0 4.5-1 6.4-3.1s2.9-4.5 2.9-7.3c-.1-2.2-.7-3.8-1.9-5.1zM24.1 112.1c-.5 0-1-.3-1.4-.9s-.7-1.3-.7-2.2c0-4.6 3.3-18 9.9-40.2C36 55.2 38 47.5 38 45.7c0-1.5-.5-2.7-1.6-3.6s-2.6-1.3-4.6-1.3c-3.6 0-8 1.5-13.2 4.4S7.7 53 1.5 59.9l4.1 3.2c5.5-5.4 9.1-8.6 10.6-9.6 1.6-1 3-1.5 4.3-1.5 1.1 0 1.7.6 1.7 1.9 0 1.1-.2 2.4-.7 3.8C12.1 88.1 7.4 107.2 7.4 115c0 2.4.6 4.3 1.9 5.7s3 2.1 5.2 2.1c2.5 0 5.7-1.1 9.7-3.4 3.9-2.3 10.2-7.4 18.8-15.5l-3.7-3.6c-8.1 7.9-13.2 11.8-15.2 11.8z"/></svg>