<svg xmlns="http://www.w3.org/2000/svg" viewBox="0 0 138.4 140" fill="#5d7373" xmlns:v="https://vecta.io/nano"><path d="M68.4 0c-19.1 0-37 7.6-50.3 21.3-2.1 2.2-2.1 5.7.1 7.8s5.7 2.1 7.8-.1c11.2-11.6 26.2-18 42.4-18 32.5 0 59 26.5 59 59s-26.5 59-59 59c-16.1 0-31.2-6.4-42.4-18-2.1-2.2-5.6-2.2-7.8-.1s-2.2 5.6-.1 7.8C31.4 132.5 49.3 140 68.4 140c38.6 0 70-31.4 70-70S107 0 68.4 0zM.1 71.1l.3.9v.1c.1.3.3.6.4.8 0 0 0 .1.1.1.2.3.4.5.6.8h0L23 95.3c1.1 1.1 2.5 1.6 3.9 1.6s2.8-.5 3.9-1.6c2.1-2.1 2.1-5.6 0-7.8L18.6 75.3h66.5c3 0 5.5-2.5 5.5-5.5s-2.5-5.5-5.5-5.5H18.8L31 52.1c2.1-2.1 2.1-5.6 0-7.8-2.1-2.1-5.6-2.1-7.8 0L1.7 65.8c-.3.3-.5.6-.8.9h0c-.2.3-.4.6-.5.9h0l-.3 1h0c-.1.3-.1.7-.1 1h0 0c0 .8 0 1.1.1 1.5 0-.1 0 0 0 0z"/></svg>