<svg xmlns="http://www.w3.org/2000/svg" viewBox="0 0 170.71 146.04" fill="#5d7373" xmlns:v="https://vecta.io/nano"><path d="M88.39 110h-6.07a5.06 5.06 0 0 1-5-4.47l-.53-4.72a30.17 30.17 0 0 1-5-2.08l-3.69 3a5.08 5.08 0 0 1-6.73-.35L57 97.05a5.08 5.08 0 0 1-.4-6.72l3-3.71a28.91 28.91 0 0 1-2.08-5l-4.7-.53a5 5 0 0 1-4.5-5V70a5.07 5.07 0 0 1 4.5-5l4.7-.52a29.38 29.38 0 0 1 2.08-5l-3-3.7A5.08 5.08 0 0 1 57 49l4.3-4.3a5.06 5.06 0 0 1 6.75-.37l3.68 2.94a29.64 29.64 0 0 1 5-2.07l.53-4.7a5.05 5.05 0 0 1 5-4.5h6.07a5.05 5.05 0 0 1 5 4.49L94 45.2a29.44 29.44 0 0 1 5 2.07l3.7-3a5.06 5.06 0 0 1 6.74.38l4.24 4.35a5.08 5.08 0 0 1 .39 6.72l-3 3.71a28.59 28.59 0 0 1 2.08 5l4.71.52a5.07 5.07 0 0 1 4.49 5v6.07a5 5 0 0 1-4.51 5l-4.69.53a28.91 28.91 0 0 1-2.08 5l3 3.69a5.1 5.1 0 0 1-.38 6.75l-4.29 4.29a5.08 5.08 0 0 1-6.73.38l-3.71-3a30 30 0 0 1-5 2.08l-.53 4.71a5.06 5.06 0 0 1-5.04 4.55zM71.31 92.71l1.5.91a24.39 24.39 0 0 0 6.84 2.84l1.7.41.92 8.13h6.12l1-8.17 1.7-.41a24.09 24.09 0 0 0 6.83-2.84l1.49-.91 6.39 5.1 4.37-4.29-5.17-6.43.92-1.5a24 24 0 0 0 2.83-6.83l.42-1.69 8.11-.92.06-6.12.22-2.55-.28 2.48-8.11-.9-.42-1.7a24 24 0 0 0-2.75-6.83L105 59l5.12-6.4-4.31-4.36-6.46 5.08-1.49-.9a23.94 23.94 0 0 0-6.83-2.82l-1.71-.41-.91-8.13-6.09-.06-1 8.19-1.7.41a23.89 23.89 0 0 0-6.85 2.82l-1.49.9-6.37-5.09-4.37 4.3L65.67 59l-.92 1.49a24 24 0 0 0-2.83 6.83L61.5 69l-8.11.9-.06 6.14 8.18 1 .41 1.69a24 24 0 0 0 2.83 6.83l.92 1.5-5.12 6.39 4.31 4.38zm14.04-.24A19.44 19.44 0 1 1 104.79 73a19.46 19.46 0 0 1-19.44 19.47zm0-33.88A14.44 14.44 0 1 0 99.79 73a14.44 14.44 0 0 0-14.44-14.41zm66.02 38.47a3 3 0 0 0-3.92 1.62A67 67 0 0 1 18.56 75.45l7.32 7.32a3 3 0 0 0 4.24 0 3 3 0 0 0 0-4.24L15.5 63.91.88 78.53a3 3 0 1 0 4.24 4.24l7.44-7.44A73 73 0 0 0 153 101a3 3 0 0 0-1.63-3.94zm18.46-32.41a3 3 0 0 0-4.24 0l-7.08 7.08A73 73 0 0 0 18 45.08a3 3 0 1 0 5.54 2.29 67 67 0 0 1 128.94 25l-7.69-7.69a3 3 0 0 0-4.24 4.24l14.62 14.62 14.62-14.62a3 3 0 0 0 .04-4.27z"/></svg>