<svg xmlns="http://www.w3.org/2000/svg" viewBox="0 0 114.6 145.8" xmlns:v="https://vecta.io/nano"><path d="M110.7 111.2c-9.3-5.5-15.1-15.6-15.1-26.3V57.1c0-9.2-3.3-18.1-9.4-25-4.3-4.9-9.7-8.5-15.6-10.8v-7.9c0-3.6-1.4-7-3.9-9.5S60.8 0 57.2 0s-7 1.4-9.5 3.9-3.9 5.9-3.9 9.5v7.9c-6 2.2-11.4 5.8-15.6 10.6l-.1.1c-6.2 7-9.6 15.9-9.6 25.2v27.9c0 10.6-5.7 20.6-14.8 26.2-3 1.8-4.4 5.2-3.4 8.5.9 3.4 4 5.7 7.7 5.7h26.8c2 11.8 11.4 20.3 22.6 20.3S78 137.3 80 125.5h26.7c3.7 0 6.8-2.3 7.7-5.7.8-3.3-.6-6.8-3.7-8.6zm-53.5 25.5c-6.3 0-11.6-4.6-13.3-11.2h26.6c-1.7 6.6-7 11.2-13.3 11.2zm4.3-117.5c-1.4-.2-2.8-.2-4.2-.3h-.1c-1.4 0-2.8.1-4.2.2v-5.7c0-1.1.4-2.2 1.3-3 1.7-1.7 4.4-1.7 6.1 0 .8.8 1.3 1.9 1.3 3v5.8h-.2zm40.6 97.1H12.3c9.5-7.5 15.3-19.1 15.3-31.3V57.1c0-7.1 2.6-13.9 7.3-19.2l.1-.1c5.6-6.3 13.7-9.9 22.1-9.9h.1c8.5 0 16.6 3.7 22.2 10.1 4.6 5.3 7.2 12 7.2 19v27.8c-.1 12.4 5.8 24 15.5 31.5z" fill="#5d7373"/></svg>