<svg xmlns="http://www.w3.org/2000/svg" viewBox="0 0 138.6 131.9" xmlns:v="https://vecta.io/nano"><path d="M135.1 1.4h0c-2.6-1.8-5.8-1.9-8.6-.4L4.5 69.5c-3 1.7-4.7 4.9-4.5 8.3.3 3.4 2.4 6.3 5.6 7.5l26.5 10.1 8.2 29c1 3.6 3.8 6.3 7.5 7.2.7.2 1.5.3 2.3.3h.1c2.9 0 5.6-1.2 7.5-3.4l16.1-17.8 31.6 12.4c1.4.6 2.9.8 4.4.9 2.2 0 4.3-.5 6.3-1.6 3.3-1.9 5.5-5.1 6-8.8L138.5 9.4c.5-3.2-.8-6.2-3.4-8zM114.3 17L34.8 87.2 8.7 77.3c-.1 0-.1 0-.1-.1s0-.1.1-.2l105.6-60zm-47.2 91l-11.7 12.4 5.3-14.9 6.4 2.5zm31-51.6l24.7-32 5.8-7.5-15 95.2c-.2 1.1-.8 2.1-1.8 2.6-1 .6-2.2.6-3.2.2L65.8 98.1l32.3-41.7zm7.5-22.4L81.2 64.9 54.8 98.4l-.3.4-6.7 20.1-7.2-25.4 65-59.5z" fill="#5d7373"/></svg>