<svg xmlns="http://www.w3.org/2000/svg" viewBox="0 0 500 500" xmlns:v="https://vecta.io/nano"><circle cx="250" cy="250" r="247.5" fill="#ff7f8d"/><path d="M314.5 88.2h-129c-14.6 0-26.4 11.8-26.4 26.4v270.7c0 14.6 11.8 26.4 26.4 26.4h129c14.6 0 26.4-11.8 26.4-26.4V114.7c0-14.6-11.8-26.5-26.4-26.5zm-41 291.2c0 2.2-.7 4.3-2 5.8-.6.7-1.9 1.9-3.6 1.9H232c-3 0-5.6-3.5-5.6-7.7 0-2.2.7-4.3 2-5.8.6-.7 1.9-1.9 3.6-1.9h35.9c3.1 0 5.6 3.5 5.6 7.7zm39.2-251.3v210.3c0 4.1-3.6 7.4-8 7.4H195.3c-4.4 0-8-3.3-8-7.4V128.1c0-4.1 3.6-7.4 8-7.4h109.5c4.3.1 7.9 3.4 7.9 7.4z" fill="#fff"/></svg>