<svg xmlns="http://www.w3.org/2000/svg" viewBox="0 0 488 697.9" fill="#5d7373" xmlns:v="https://vecta.io/nano"><path d="M384 488H104C46.6 488 0 441.4 0 384V104C0 46.6 46.6 0 104 0h280c57.3 0 104 46.6 104 104v280c0 57.4-46.6 104-104 104zM104 34.5c-38.3 0-69.5 31.2-69.5 69.5v280c0 38.3 31.2 69.5 69.5 69.5h280c38.3 0 69.5-31.2 69.5-69.5V104c0-38.3-31.2-69.5-69.5-69.5H104zm102.2 163.6c-10.7-22.3-33.4-37.7-59.8-37.7-36.6 0-66.3 29.7-66.3 66.3 0 17.8 7.1 34 18.5 45.9 12.1 12.5 29 20.4 47.8 20.4 36.6 0 66.3-29.7 66.3-66.3 0-10.2-2.3-19.9-6.5-28.6zm-44.6 56.3c0 .9-.9 1.4-1.7.9l-26.6-16.4-18.3-11.3c-.7-.4-.7-1.5 0-1.9l45-27.7c.7-.5 1.7.1 1.7.9v55.5zm176-94c-26.4 0-49.2 15.4-59.8 37.7-4.1 8.7-6.5 18.3-6.5 28.6 0 36.6 29.7 66.3 66.3 66.3 18.8 0 35.8-7.8 47.8-20.4h0c11.5-11.9 18.5-28.1 18.5-45.9 0-36.6-29.7-66.3-66.3-66.3zm0 31.2c8.1 0 14.7 6.6 14.7 14.7s-6.6 14.7-14.7 14.7-14.7-6.6-14.7-14.7 6.6-14.7 14.7-14.7zm-23 64.5c-8.1 0-14.7-6.6-14.7-14.7s6.6-14.7 14.7-14.7 14.7 6.6 14.7 14.7-6.6 14.7-14.7 14.7zm46 0c-8.1 0-14.7-6.6-14.7-14.7 0-1.9.4-3.7 1-5.4 2.1-5.5 7.4-9.3 13.7-9.3 8.1 0 14.7 6.6 14.7 14.7 0 5.1-2.6 9.6-6.5 12.2-2.3 1.6-5.2 2.5-8.2 2.5zm25.2 71.9c-4.5 12.2-16.1 29.8-42.9 29.8-20.4 0-29.6-14.4-37-28.9-12.7-24.9-34.4-45.1-63.9-45.1s-51.2 20.3-63.9 45.1c-7.4 14.5-16.6 28.9-37 28.9-26.8 0-38.4-17.6-42.9-29.8-6.1-16.6-5.2-32.4-2.7-44.2.2-.9 1.3-1.2 1.9-.6 14.4 12.5 33.8 19.6 54.7 18.1 36.2-2.7 65.8-32 68.8-68.2a75.2 75.2 0 0 0-4.7-33.3 1.18 1.18 0 0 1 1.1-1.6h49.5a1.18 1.18 0 0 1 1.1 1.6c-4 10.2-5.7 21.4-4.8 33.2 2.9 36.2 32.4 65.5 68.6 68.3 21 1.6 40.4-5.5 54.9-18 .7-.6 1.8-.3 1.9.6 2.5 11.7 3.4 27.5-2.7 44.1zM194.1 613.6c0 4.3-.7 8.1-2.1 11.5s-3.4 6.3-6 8.8c-2.6 2.4-5.8 4.3-9.6 5.6s-8.3 2-13.6 2H153v30.7c0 .4-.1.7-.3.9s-.5.5-.9.6c-.4.2-1 .3-1.7.4s-1.6.2-2.7.2-2-.1-2.7-.2-1.3-.2-1.7-.4-.7-.4-.9-.6c-.2-.3-.3-.6-.3-.9v-78.7c0-1.8.5-3 1.4-3.8.9-.7 2-1.1 3.1-1.1h18.3c1.8 0 3.6.1 5.3.2 1.7.2 3.7.5 6 1s4.7 1.4 7.1 2.8a23.34 23.34 0 0 1 6.1 5.1c1.7 2 3 4.4 3.9 7 .7 2.8 1.1 5.7 1.1 8.9zm-11.9.9c0-3.5-.6-6.4-1.9-8.7s-2.9-4.1-4.8-5.2-3.9-1.9-5.9-2.2-4-.5-6-.5H153v34.2h10.2c3.4 0 6.3-.4 8.5-1.3 2.3-.9 4.2-2.1 5.7-3.7s2.7-3.4 3.5-5.6c.9-2.1 1.3-4.4 1.3-7zm38.9 57.8c0 .4-.1.6-.3.9-.2.2-.5.5-.9.6s-.9.3-1.6.4-1.6.1-2.7.1-1.9 0-2.6-.1-1.3-.2-1.7-.4-.7-.4-.9-.6-.2-.5-.2-.9v-88.1c0-.4.1-.7.2-.9.2-.3.4-.5.9-.7.4-.2 1-.3 1.7-.4s1.6-.1 2.6-.1l2.7.1c.7.1 1.3.2 1.6.4.4.2.7.4.9.7s.3.6.3.9v88.1zm64.8 0c0 .5-.2.9-.5 1.2-.4.3-.8.5-1.5.6-.6.1-1.5.2-2.7.2-1.1 0-2.1-.1-2.7-.2-.7-.1-1.2-.3-1.5-.6s-.5-.7-.5-1.2v-5.9c-2.6 2.8-5.5 4.9-8.7 6.5-3.2 1.5-6.6 2.3-10.1 2.3-3.1 0-5.9-.4-8.5-1.2-2.5-.8-4.7-2-6.5-3.5s-3.2-3.4-4.2-5.7c-1-2.2-1.5-4.8-1.5-7.6 0-3.3.7-6.2 2-8.7 1.4-2.5 3.3-4.5 5.9-6.1 2.5-1.6 5.7-2.8 9.4-3.7 3.7-.8 7.8-1.2 12.5-1.2h8.2v-4.6c0-2.3-.2-4.3-.7-6.1s-1.3-3.2-2.3-4.4c-1.1-1.2-2.5-2-4.2-2.6s-3.8-.9-6.3-.9c-2.7 0-5.1.3-7.2 1-2.1.6-4 1.3-5.6 2.1a121.98 121.98 0 0 0-4 2.1c-1.1.6-1.9 1-2.4 1-.4 0-.7-.1-.9-.3a1.85 1.85 0 0 1-.7-.8c-.2-.4-.3-.8-.4-1.4-.1-.5-.1-1.2-.1-1.8 0-1.1.1-2 .2-2.6.2-.6.5-1.2 1.1-1.8s1.6-1.2 3.1-2a28.91 28.91 0 0 1 5-2.1c1.9-.6 4-1.2 6.2-1.6s4.5-.6 6.8-.6c4.3 0 7.9.5 10.9 1.5s5.4 2.4 7.2 4.3 3.2 4.2 4 7 1.3 6 1.3 9.7v39.7zm-10.9-27h-9.3c-3 0-5.6.3-7.8.8a18.57 18.57 0 0 0-5.5 2.2c-1.4 1-2.5 2.2-3.2 3.6s-1 3-1 4.8c0 3.1 1 5.5 2.9 7.3 2 1.8 4.7 2.7 8.2 2.7 2.9 0 5.5-.7 7.9-2.2s5-3.7 7.7-6.7v-12.5zm55.3 28.6l-7.9 21.8c-.3.7-.9 1.2-2 1.6s-2.7.6-4.9.6a20.28 20.28 0 0 1-2.8-.2c-.7-.1-1.2-.3-1.6-.6s-.6-.6-.6-1.1c0-.4.1-1 .3-1.6l8.2-20.6c-.4-.2-.8-.5-1.1-.9-.4-.4-.6-.8-.7-1.3L296 615.1c-.4-.9-.5-1.6-.5-2.2s.2-.9.5-1.3c.4-.3.9-.5 1.7-.6s1.8-.2 3.2-.2l3.1.1c.7.1 1.3.2 1.8.4.4.2.8.4 1 .8.2.3.4.8.6 1.4l16.9 47.6h.2l16.3-47.8c.3-.8.6-1.4 1-1.6s.9-.4 1.7-.5c.7-.1 1.8-.2 3.2-.2 1.2 0 2.2.1 3 .2s1.4.3 1.7.6c.4.3.6.7.6 1.3s-.1 1.2-.4 2l-21.3 58.8z"/></svg>