<svg xmlns="http://www.w3.org/2000/svg" viewBox="0 0 179.5 123.6" fill="#5d7373" xmlns:v="https://vecta.io/nano"><path d="M164.5 49.5c2.8 1.2 4.8 1.3 5.8.1.8-.9.8-2.6.2-3.4-2.5-3.9-6.4-4.8-10.4-4.5 0 1.1.2 2.2.5 3.2.6 2.2 1.9 3.8 3.9 4.6zM85.9 12.3c-8 0-15.8 1.8-22.5 5.2l-2.3 1.2L67 27l1.7-.7c4.3-1.9 10.2-3 16.2-3 10.4 0 19 2.5 25.6 7.5l1.8 1.4 5.9-7.8-1.5-1.4c-7.5-6.9-18.4-10.7-30.8-10.7zm-.3 3.8c10.3 0 20.3 3.1 26.9 8.3l-1.5 1.8c-7.5-5.1-16.1-7.7-25.8-7.7-5 0-10.5 1.2-16.3 3.6L67.8 20c6-2.6 11.8-3.9 17.8-3.9zM38.3 38.2c-4.9 0-8.8 4-8.8 8.8 0 4.9 4 8.8 8.8 8.8 4.9 0 8.8-4 8.8-8.8 0-4.9-4-8.8-8.8-8.8zm0 12.3c-1.9 0-3.5-1.6-3.5-3.5s1.6-3.5 3.5-3.5 3.5 1.6 3.5 3.5c-.1 1.9-1.6 3.5-3.5 3.5zm133.1-14.7c-1.3-.7-2.7-1.2-4.2-1.7.3-.7.6-1.3 1-2 1.7-2.8.5-6.7-2.5-8.7-3.1-2-7-1.2-9.2 2-2.4 3.5-3.6 7-4.2 9.2-.7.3-1.4.7-2.1 1.2C138.3 14.6 112.1 0 85.8 0c-12.6 0-25 2.6-35.9 7.6-5.9-1.6-23.8-5-39.3 5.1l-3.1 2 1.8 3.2c.2.4 5.5 9.6 13 15.4-3.1 4.9-6.5 11.3-7.4 18.5L0 56.2l.5 3.3c.2 1.1 4 26.6 24.7 30.6 1.7 4.1 6.1 12.2 15 16.8L38 123.6h29.8l2.9-11.5c4.9.1 14.5.2 23 .1l-2.8 11.4h31.4l1.2-1.2c1.2-1.3 29.9-32.3 32.8-60.2.3-2.6.3-5.3 0-8 2.8 3 6.6 5.2 10.4 5.8 5.2.8 9.5-1.7 11.6-6.6.8-1.9 1.2-3.8 1.2-5.6-.2-4.9-3-9.3-8.1-12zm-22.1 9.3c-.5.3-1 .5-1.3.7-.7.4-1.1.6-1.3.8.4 1 .7 1.9.9 2.5.1.2.2 1 .2 1 .8 3.4 1 7.2.6 11.4-2.3 22.3-24.2 48.2-29.6 54.4h-18.1l2.8-11.7-5.2.2c-12.1.5-30.6 0-30.8 0l-3.1-.1-3 11.6H46.7l1.8-13.7-2.9-1.1c-10.4-4-14-15.3-14-15.4l-.7-2.5-2.6-.3c-12.7-1.3-17.7-14.2-19.5-21l13.5-4 .1-2.8c.2-7.4 4.2-14.2 8.4-20.5l2.4-3.5-3.7-2.1c-4.8-2.7-9.1-8.3-11.4-11.6 14.2-7 30.6-1.9 30.8-1.8l1.5.5 1.4-.7c10.1-4.9 21.8-7.5 33.9-7.5 25.3 0 50.4 15 59.7 35.6a16.15 16.15 0 0 0 .3.8c.3-.2.8-.5 1.3-.8.4-.2.8-.4 1.3-.7 1.9-.9 4.4-2 7.2-2.8.7-.2 1.4-.3 2-.5.3-5.2 2.3-10 2.8-10.7.4-.5 1.2-.7 1.7-.3.6.4.7 1.2.3 1.7-.4.6-1.9 4.6-2.2 8.9 5.5-.4 9.8 1.5 12.4 5.7 1.1 1.7 1.2 4.5-.4 6.4-.7.8-1.9 1.7-4 1.7-1.2 0-2.8-.3-4.7-1.1-2.8-1.2-4.6-3.4-5.4-6.6-.3-1-.4-2.1-.5-3.2-3.1.8-6.2 2.1-8.2 3.1z"/></svg>