<svg xmlns="http://www.w3.org/2000/svg" viewBox="0 0 130.4 149.5" xmlns:v="https://vecta.io/nano"><path d="M130.4 124.8c-.1-28.9-19.3-53.4-45.5-61.8 9-6.2 14.9-16.7 14.9-28.4C99.8 15.5 84.3 0 65.2 0S30.6 15.5 30.6 34.6c0 11.8 5.9 22.2 14.9 28.4C19.3 71.3.1 95.9 0 124.8v2.8l2.3 1.7c18.4 13.2 40.1 20.2 62.8 20.2s44.4-7 62.8-20.2l2.3-1.7.2-2.8zM65.3 11c13 0 23.6 10.6 23.6 23.6S78.3 58.1 65.3 58.1 41.7 47.5 41.7 34.5 52.3 11 65.3 11zm0 127.4c-19.4 0-38.1-5.7-54-16.5 1.6-28.4 25.3-51 54-51s52.4 22.6 54 51c-16 10.8-34.6 16.5-54 16.5z" fill="#5d7373"/></svg>