<svg xmlns="http://www.w3.org/2000/svg" viewBox="0 0 130.75 130.76" fill="#5d7373" xmlns:v="https://vecta.io/nano"><path d="M0 115.81c0 8.24 6.7 14.95 14.94 14.95h45.24V70.57H0v45.24zm49.52-34.57v38.86H14.94a4.28 4.28 0 0 1-4.27-4.29V81.24h38.85zm70.57-10.67h10.67V94.6h-10.67zm-7.78 0H70.56v24.04h10.66V81.24h31.09zm-41.75 36.15h10.67v24.04H70.56zm49.53 9.11c0 2.35-1.92 4.26-4.29 4.26H89v10.67h26.8c8.24 0 14.95-6.7 14.95-14.93v-9.11h-10.67v9.11zM92.61 92.6h16.11v16.11H92.61zM115.81 0H70.57v60.19h60.18V14.95c0-8.24-6.7-14.95-14.94-14.95zM81.24 49.53V10.67h34.58a4.28 4.28 0 0 1 4.27 4.29v34.58H81.24zM0 36.16h10.67v24.03H0zm49.53 13.37H18.44v10.66h41.75V36.16H49.53zm0-49.52H60.2v24.04H49.53zM10.67 14.94c0-2.35 1.92-4.26 4.29-4.26h26.8V.01h-26.8C6.71.01 0 6.71 0 14.94v9.11h10.67v-9.11zm11.36 7.11h16.11v16.11H22.03z"/></svg>