<svg xmlns="http://www.w3.org/2000/svg" viewBox="0 0 153 149.6" fill="#5d7373" xmlns:v="https://vecta.io/nano"><path d="M107.7 63c9-6.2 14.9-16.7 14.9-28.4C122.6 15.5 107.1 0 88 0S53.4 15.5 53.4 34.6c0 11.7 5.9 22.1 14.8 28.3C64 64.2 60 66 56.1 68.3c-2.6 1.5-3.5 4.9-2 7.5s4.9 3.5 7.5 2c8-4.6 16.3-6.8 26.3-6.8 28.7 0 52.4 22.6 54 51-16 10.8-34.6 16.5-54 16.5-20.4 0-39.9-6.3-56.4-18.1-2.5-1.8-5.9-1.2-7.7 1.3s-1.2 5.9 1.3 7.7c18.4 13.2 40.1 20.2 62.8 20.2s44.4-7 62.8-20.2c1.4-1 2.3-2.7 2.3-4.5 0-29-19.1-53.6-45.3-61.9zM88 11c13 0 23.6 10.6 23.6 23.6S101 58.2 88 58.2 64.4 47.6 64.4 34.6 75 11 88 11zM47.7 122.7c.3.1.7.1 1 .1 1.2 0 2.4-.7 3-1.8.8-1.4.5-3.2-.7-4.3-14.5-13.2-16.5-25.6-16.5-31.4h13.6 0c1.4 0 2.7-.9 3.2-2.2s.2-2.8-.8-3.8L28.2 57c-1.4-1.4-3.6-1.4-4.9 0L1 79.3c-1 1-1.3 2.5-.8 3.8s1.8 2.2 3.2 2.2h12.8c6.2 29.7 30.4 37.1 31.5 37.4zM19.2 78.4h-7.3l13.8-13.8 13.8 13.8h-8.4 0c-1.7 0-3.2 1.3-3.5 3-.5 3.1-1 11.4 4 21.7-4-5.2-7.6-12.2-9.1-21.7-.1-1.8-1.5-3-3.3-3z"/></svg>